<svg xmlns="http://www.w3.org/2000/svg" width="80" height="80" viewBox="0 0 80 80">
  <rect width="80" height="80" fill="#866239" opacity="0.6"/>
  <rect width="80" height="80" fill="#4a7836" opacity="0.5"/>
  <g fill="#3a5530" opacity="0.75">
    <ellipse cx="12" cy="22" rx="6" ry="3"/>
    <ellipse cx="48" cy="10" rx="5" ry="2.5"/>
    <ellipse cx="58" cy="40" rx="7" ry="3.5"/>
    <ellipse cx="24" cy="58" rx="6" ry="3"/>
    <ellipse cx="68" cy="64" rx="5" ry="2.5"/>
  </g>
  <g stroke="#785233" stroke-width="1.5" fill="none" opacity="0.7" stroke-linecap="round">
    <path d="M6 38 Q10 32 16 36"/>
    <path d="M34 24 Q40 18 46 24"/>
    <path d="M50 56 Q56 50 62 56"/>
    <path d="M22 72 Q28 66 34 72"/>
  </g>
  <g fill="#c79a59" opacity="0.6">
    <circle cx="14" cy="44" r="1.5"/>
    <circle cx="36" cy="50" r="1.2"/>
    <circle cx="70" cy="20" r="1.3"/>
    <circle cx="56" cy="72" r="1.4"/>
  </g>
</svg>
